<?xml version="1.0" encoding="UTF-8" standalone="no"?><!DOCTYPE svg PUBLIC "-//W3C//DTD SVG 1.1//EN" "http://www.w3.org/Graphics/SVG/1.1/DTD/svg11.dtd"><svg width="100%" height="100%" viewBox="0 0 6667 6667" version="1.1" xmlns="http://www.w3.org/2000/svg" xmlns:xlink="http://www.w3.org/1999/xlink" xml:space="preserve" xmlns:serif="http://www.serif.com/" style="fill-rule:evenodd;clip-rule:evenodd;stroke-linejoin:round;stroke-miterlimit:2;"><circle cx="3326.4" cy="3345.28" r="2083.56" style="fill:#ebebeb;"/><path d="M3424.61,188.099c-0,-51.392 -41.724,-93.115 -93.116,-93.115c-51.391,-0 -93.115,41.723 -93.115,93.115l0,690.397c0,51.392 41.724,93.116 93.115,93.116c51.392,-0 93.116,-41.724 93.116,-93.116l-0,-690.397Z" style="fill:#ebebeb;"/><path d="M3417.19,5781.43c-0,-51.392 -41.724,-93.115 -93.116,-93.115c-51.391,-0 -93.115,41.723 -93.115,93.115l0,690.397c0,51.392 41.724,93.116 93.115,93.116c51.392,-0 93.116,-41.724 93.116,-93.116l-0,-690.397Z" style="fill:#ebebeb;"/><path d="M185.923,3233.13c-51.391,-0 -93.115,41.723 -93.115,93.115c0,51.392 41.724,93.115 93.115,93.115l690.398,0c51.391,0 93.115,-41.723 93.115,-93.115c-0,-51.392 -41.724,-93.115 -93.115,-93.115l-690.398,-0Z" style="fill:#ebebeb;"/><path d="M5779.25,3240.56c-51.391,-0 -93.115,41.724 -93.115,93.115c0,51.392 41.724,93.115 93.115,93.115l690.398,0c51.391,0 93.115,-41.723 93.115,-93.115c-0,-51.391 -41.724,-93.115 -93.115,-93.115l-690.398,-0Z" style="fill:#ebebeb;"/><path d="M1037.69,5483.12c-36.339,36.34 -36.339,95.346 0,131.685c36.34,36.34 95.346,36.34 131.685,0l488.185,-488.184c36.339,-36.34 36.339,-95.346 -0,-131.685c-36.34,-36.339 -95.346,-36.339 -131.685,-0l-488.185,488.184Z" style="fill:#ebebeb;"/><path d="M4998.01,1533.3c-36.339,36.339 -36.339,95.345 0,131.684c36.34,36.34 95.346,36.34 131.685,0l488.184,-488.184c36.34,-36.339 36.34,-95.345 0,-131.685c-36.339,-36.339 -95.345,-36.339 -131.684,0l-488.185,488.185Z" style="fill:#ebebeb;"/><path d="M5480.95,5620.06c36.339,36.34 95.345,36.34 131.685,0c36.339,-36.339 36.339,-95.345 -0,-131.685l-488.185,-488.184c-36.339,-36.34 -95.345,-36.34 -131.685,-0c-36.339,36.339 -36.339,95.345 0,131.685l488.185,488.184Z" style="fill:#ebebeb;"/><path d="M1531.12,1659.73c36.339,36.339 95.345,36.339 131.685,-0c36.339,-36.34 36.339,-95.346 -0,-131.685l-488.185,-488.185c-36.339,-36.339 -95.345,-36.339 -131.685,0c-36.339,36.34 -36.339,95.346 0,131.685l488.185,488.185Z" style="fill:#ebebeb;"/></svg>